<svg width="169" height="105" viewBox="0 0 169 105" fill="none" xmlns="http://www.w3.org/2000/svg">
<path d="M113.16 6.272C112.392 5.88799 111.624 4.992 111.24 4.224C110.088 4.09599 108.936 4.09599 107.656 4.09599C95.368 4.09599 82.184 5.504 70.024 7.808C65.672 14.336 28.168 92.8 28.168 100.864C28.168 101.376 27.016 104.32 26.376 104.32C25.48 104.32 25.224 104.192 24.2 103.552C28.808 82.304 54.792 29.44 65.8 8.70399C57.096 8.576 19.464 17.536 11.784 21.504C19.592 20.864 27.144 19.712 34.952 19.712C37.128 19.712 41.352 19.968 41.352 23.04C41.352 24.064 39.944 26.752 38.664 26.752L37.64 26.624L39.944 22.784C39.048 22.4 37.896 21.76 36.872 21.76C25.48 21.76 13.96 25.6 2.824 25.6C1.672 25.6 0.776 24.576 0.52 23.552C2.824 17.28 56.456 7.03999 64.904 5.632C66.952 5.24799 69.128 4.48 70.024 2.432C71.944 1.92 71.56 4.09599 73.608 4.09599C86.536 4.09599 99.72 0.639992 112.904 0.639992C114.568 0.639992 117.64 0.511993 117.64 2.81599L117 4.224C115.72 4.992 114.44 5.632 113.16 6.272ZM126.422 66.944L127.446 68.992C122.326 73.216 104.278 84.736 99.414 84.736C86.998 84.736 90.454 72.192 87.382 68.608C79.19 68.096 64.854 89.6 61.782 89.6C60.502 89.6 59.222 88.32 59.222 87.04C58.326 73.728 90.582 17.024 98.006 9.088L99.158 9.216L99.542 10.24C95.83 19.712 88.278 29.056 83.158 38.016C75.35 52.224 68.054 67.712 63.318 83.456C64.982 83.84 77.91 66.304 85.846 66.304C94.934 66.304 88.406 82.304 97.238 82.304C102.742 82.304 120.662 70.144 126.422 66.944ZM167.6 66.816L168.112 68.224C159.792 74.624 135.6 90.24 126.384 90.24C122.8 90.24 118.448 87.168 118.448 82.688C118.448 75.904 129.072 58.88 135.472 58.88C139.184 58.88 140.08 62.72 138.8 65.408C136.368 70.656 128.944 73.984 124.336 75.008C122.8 78.336 118.064 87.936 125.36 87.936C132.016 87.936 162.48 70.656 167.6 66.816ZM127.024 71.936C130.48 71.296 135.088 67.712 136.368 65.024C137.776 61.952 135.344 62.464 133.808 63.36C130.864 65.28 128.816 68.992 127.024 71.936Z" fill="white"/>
</svg>
