<svg width="60" height="33" viewBox="0 0 60 33" fill="none" xmlns="http://www.w3.org/2000/svg">
<path d="M1.08444 0.788604C0.533766 0.746489 0.051465 1.15878 0.0277259 1.71056C-0.135125 5.49575 0.420407 9.28073 1.66817 12.8645C3.02563 16.7632 5.17316 20.3399 7.97639 23.3706C10.7796 26.4013 14.1782 28.8208 17.9594 30.4777C21.7407 32.1346 25.8232 32.9933 29.9515 33C34.0799 33.0066 38.1652 32.1612 41.9517 30.5165C45.7383 28.8718 49.1447 26.4633 51.9577 23.4416C54.7707 20.42 56.9298 16.8503 58.2998 12.9559C59.5592 9.37626 60.1269 5.59308 59.9763 1.80739C59.9543 1.25554 59.4734 0.841689 58.9226 0.882025L38.6534 2.36633C38.1026 2.40666 37.6956 2.88725 37.664 3.43863C37.6229 4.15631 37.4812 4.86635 37.2415 5.54758C36.8909 6.5441 36.3385 7.45753 35.6187 8.23072C34.8988 9.00391 34.0272 9.62021 33.0583 10.0411C32.0893 10.4619 31.044 10.6783 29.9876 10.6766C28.9312 10.6749 27.8866 10.4551 26.919 10.0312C25.9514 9.60717 25.0818 8.98805 24.3645 8.21254C23.6472 7.43703 23.0977 6.52182 22.7503 5.52418C22.5129 4.84217 22.3734 4.13168 22.3346 3.41387C22.3048 2.86239 21.8994 2.38049 21.3487 2.33838L1.08444 0.788604Z" fill="#FF777D"/>
<path d="M1.0826 0.812857C0.531885 0.771204 0.0499312 1.1839 0.0266549 1.7357C-0.133021 5.52102 0.425685 9.30554 1.67645 12.8882C3.03718 16.7859 5.18772 20.3607 7.99348 23.3891C10.7992 26.4174 14.1998 28.8341 17.9825 30.4878C21.7651 32.1416 25.8484 32.9968 29.9767 33C34.1051 33.0032 38.1896 32.1543 41.9748 30.5064C45.76 28.8586 49.1644 26.4472 51.9748 23.4232C54.7853 20.3992 56.9414 16.8277 58.3082 12.9322C59.5645 9.35146 60.1291 5.56781 59.9753 1.78224C59.9529 1.23041 59.4715 0.816969 58.9208 0.857767L57.5505 0.959263C56.9998 1.00006 56.5883 1.47965 56.6084 2.03157C56.7293 5.35388 56.2271 8.67257 55.1245 11.8152C53.9114 15.2726 51.9978 18.4424 49.5034 21.1263C47.009 23.8102 43.9876 25.9504 40.6281 27.4129C37.2686 28.8754 33.6434 29.6289 29.9793 29.626C26.3153 29.6232 22.6913 28.8641 19.334 27.3964C15.9768 25.9286 12.9587 23.7837 10.4685 21.096C7.97826 18.4082 6.06958 15.2354 4.86189 11.7761C3.76417 8.63183 3.26705 5.31236 3.39314 1.99025C3.41408 1.43836 3.00338 0.958135 2.45267 0.916482L1.0826 0.812857Z" fill="#5D8A3E"/>
<path d="M9.02637 6.88793C8.59562 7.31869 8.01139 7.56068 7.40221 7.56068H7.00993C6.97098 7.56068 6.93941 7.52911 6.93941 7.49016V7.09788C6.93941 6.4887 7.1814 5.90447 7.61216 5.47372L7.64651 5.43936C8.03704 5.04884 8.6702 5.04884 9.06073 5.43936C9.45125 5.82988 9.45125 6.46305 9.06073 6.85357L9.02637 6.88793Z" fill="#271F1D"/>
<path d="M15.5486 9.50003C16.1578 9.50003 16.742 9.74202 17.1728 10.1728L17.4502 10.4502C17.4777 10.4777 17.4777 10.5224 17.4502 10.5499L17.1728 10.8273C16.742 11.258 16.1578 11.5 15.5486 11.5H15.5C14.9477 11.5 14.5 11.0523 14.5 10.5C14.5 9.94774 14.9477 9.50003 15.5 9.50003H15.5486Z" fill="#271F1D"/>
<path d="M25.9757 26.69C25.6711 26.1624 25.5886 25.5355 25.7462 24.947L25.8478 24.5681C25.8579 24.5305 25.8965 24.5082 25.9341 24.5183L26.3131 24.6198C26.9015 24.7775 27.4032 25.1624 27.7078 25.69L27.732 25.7321C28.0082 26.2104 27.8443 26.8219 27.366 27.0981C26.8877 27.3742 26.2761 27.2104 26 26.7321L25.9757 26.69Z" fill="#271F1D"/>
<path d="M28.9173 16.6772C29.075 16.0888 29.46 15.5871 29.9875 15.2825L30.3272 15.0864C30.361 15.0669 30.4041 15.0785 30.4236 15.1122L30.6197 15.4519C30.9243 15.9795 31.0068 16.6065 30.8492 17.1949L30.8366 17.2418C30.6937 17.7753 30.1453 18.0919 29.6119 17.9489C29.0784 17.806 28.7618 17.2576 28.9048 16.7242L28.9173 16.6772Z" fill="#271F1D"/>
<path d="M38.2715 11.8849C38.4291 11.2965 38.8141 10.7948 39.3416 10.4902L39.6814 10.2941C39.7151 10.2746 39.7582 10.2862 39.7777 10.3199L39.9738 10.6596C40.2784 11.1872 40.361 11.8142 40.2033 12.4026L40.1907 12.4495C40.0478 12.983 39.4995 13.2996 38.966 13.1566C38.4325 13.0137 38.1159 12.4653 38.2589 11.9319L38.2715 11.8849Z" fill="#271F1D"/>
<path d="M35.6121 22.5263C35.1813 22.0956 34.9393 21.5114 34.9393 20.9022V20.5099C34.9393 20.4709 34.9709 20.4394 35.0098 20.4394H35.4021C36.0113 20.4394 36.5955 20.6814 37.0263 21.1121L37.0606 21.1465C37.4512 21.537 37.4512 22.1702 37.0606 22.5607C36.6701 22.9512 36.0369 22.9512 35.6464 22.5607L35.6121 22.5263Z" fill="#271F1D"/>
<path d="M46.612 12.5263C46.1813 12.0956 45.9393 11.5113 45.9393 10.9022V10.5099C45.9393 10.4709 45.9709 10.4394 46.0098 10.4394H46.4021C47.0113 10.4394 47.5955 10.6814 48.0262 11.1121L48.0606 11.1465C48.4511 11.537 48.4511 12.1702 48.0606 12.5607C47.6701 12.9512 47.0369 12.9512 46.6464 12.5607L46.612 12.5263Z" fill="#271F1D"/>
<path d="M52.3799 4.79408C51.9491 4.36333 51.7071 3.7791 51.7071 3.16992V2.77764C51.7071 2.73869 51.7387 2.70712 51.7776 2.70712H52.1699C52.7791 2.70712 53.3633 2.94912 53.7941 3.37987L53.8284 3.41423C54.219 3.80475 54.219 4.43792 53.8284 4.82844C53.4379 5.21897 52.8047 5.21897 52.4142 4.82844L52.3799 4.79408Z" fill="#271F1D"/>
<path d="M16.3098 18.4475C16.7717 18.8447 17.0568 19.4091 17.1026 20.0166L17.132 20.4077C17.1349 20.4466 17.1058 20.4804 17.067 20.4834L16.6758 20.5128C16.0683 20.5585 15.4676 20.3611 15.0057 19.9639L14.9689 19.9322C14.5502 19.5721 14.5026 18.9407 14.8627 18.522C15.2228 18.1032 15.8542 18.0557 16.273 18.4158L16.3098 18.4475Z" fill="#271F1D"/>
</svg>
