<svg width="60" height="33" viewBox="0 0 60 33" fill="none" xmlns="http://www.w3.org/2000/svg">
<path d="M1.08076 0.837284C0.530012 0.796096 0.0484063 1.2092 0.0255966 1.76101C-0.130906 5.54713 0.431222 9.33182 1.68547 12.914C3.04996 16.811 5.20422 20.3844 8.01338 23.4105C10.8226 26.4366 14.2261 28.8502 18.0111 30.5003C21.7961 32.1504 25.8809 33.0013 30.0099 33C34.1389 32.9986 38.2232 32.1449 42.007 30.4924C45.7909 28.8398 49.1929 26.4239 52.0001 23.396C54.8072 20.3681 56.9591 16.7932 58.3211 12.8953C59.5729 9.31234 60.1326 5.52728 59.9736 1.74127C59.9504 1.18947 59.4685 0.776683 58.9178 0.818233L38.652 2.34722C38.1013 2.38877 37.6953 2.87026 37.665 3.42171C37.6255 4.13964 37.4852 4.85015 37.2469 5.53205C36.8984 6.52948 36.3478 7.44422 35.6295 8.21902C34.9112 8.99383 34.0407 9.61201 33.0724 10.0349C32.1042 10.4577 31.0591 10.6762 30.0025 10.6765C28.946 10.6769 27.9007 10.4591 26.9322 10.0369C25.9637 9.61467 25.0928 8.99706 24.374 8.22273C23.6551 7.4484 23.1039 6.53402 22.7547 5.53683C22.516 4.85508 22.3753 4.14467 22.3353 3.42676C22.3046 2.87533 21.8984 2.39411 21.3476 2.35292L1.08076 0.837284Z" fill="#E50058"/>
<path d="M1.0826 0.812832C0.531885 0.771179 0.0499312 1.18388 0.0266549 1.73567C-0.133021 5.521 0.425685 9.30552 1.67645 12.8882C3.03718 16.7858 5.18772 20.3607 7.99348 23.389C10.7992 26.4174 14.1998 28.834 17.9825 30.4878C21.7651 32.1415 25.8484 32.9968 29.9767 33C34.1051 33.0032 38.1896 32.1543 41.9748 30.5064C45.76 28.8585 49.1644 26.4472 51.9748 23.4232C54.7853 20.3992 56.9414 16.8277 58.3082 12.9322C59.5645 9.35143 60.1291 5.56779 59.9753 1.78222C59.9529 1.23039 59.4715 0.816943 58.9208 0.857741L57.5505 0.959238C56.9998 1.00004 56.5883 1.47962 56.6084 2.03154C56.7293 5.35385 56.2271 8.67254 55.1245 11.8151C53.9114 15.2725 51.9978 18.4424 49.5034 21.1263C47.009 23.8102 43.9876 25.9503 40.6281 27.4129C37.2686 28.8754 33.6434 29.6288 29.9793 29.626C26.3153 29.6232 22.6913 28.8641 19.334 27.3963C15.9768 25.9286 12.9587 23.7837 10.4685 21.096C7.97826 18.4082 6.06958 15.2354 4.86189 11.7761C3.76417 8.63181 3.26705 5.31234 3.39314 1.99022C3.41408 1.43834 3.00338 0.958109 2.45267 0.916456L1.0826 0.812832Z" fill="#21732E"/>
<path d="M9.02637 6.88791C8.59562 7.31866 8.01139 7.56066 7.40221 7.56066H7.00993C6.97098 7.56066 6.93941 7.52908 6.93941 7.49013V7.09785C6.93941 6.48867 7.1814 5.90445 7.61216 5.47369L7.64651 5.43933C8.03704 5.04881 8.6702 5.04881 9.06073 5.43933C9.45125 5.82986 9.45125 6.46302 9.06073 6.85355L9.02637 6.88791Z" fill="black"/>
<path d="M15.5486 9.5C16.1578 9.5 16.742 9.742 17.1728 10.1727L17.4502 10.4501C17.4777 10.4777 17.4777 10.5223 17.4502 10.5499L17.1728 10.8273C16.742 11.258 16.1578 11.5 15.5486 11.5H15.5C14.9477 11.5 14.5 11.0523 14.5 10.5C14.5 9.94772 14.9477 9.5 15.5 9.5H15.5486Z" fill="black"/>
<path d="M25.9757 26.69C25.6711 26.1624 25.5886 25.5354 25.7462 24.947L25.8478 24.5681C25.8579 24.5305 25.8965 24.5082 25.9341 24.5182L26.3131 24.6198C26.9015 24.7774 27.4032 25.1624 27.7078 25.69L27.732 25.732C28.0082 26.2103 27.8443 26.8219 27.366 27.0981C26.8877 27.3742 26.2761 27.2103 26 26.732L25.9757 26.69Z" fill="black"/>
<path d="M28.9173 16.6772C29.075 16.0888 29.46 15.5871 29.9875 15.2825L30.3272 15.0864C30.361 15.0669 30.4041 15.0785 30.4236 15.1122L30.6197 15.4519C30.9243 15.9795 31.0068 16.6064 30.8492 17.1949L30.8366 17.2418C30.6937 17.7753 30.1453 18.0918 29.6119 17.9489C29.0784 17.806 28.7618 17.2576 28.9048 16.7241L28.9173 16.6772Z" fill="black"/>
<path d="M38.2715 11.8849C38.4291 11.2965 38.8141 10.7948 39.3416 10.4902L39.6814 10.2941C39.7151 10.2746 39.7582 10.2862 39.7777 10.3199L39.9738 10.6596C40.2784 11.1872 40.361 11.8141 40.2033 12.4026L40.1907 12.4495C40.0478 12.983 39.4995 13.2995 38.966 13.1566C38.4325 13.0137 38.1159 12.4653 38.2589 11.9319L38.2715 11.8849Z" fill="black"/>
<path d="M35.6121 22.5263C35.1813 22.0956 34.9393 21.5113 34.9393 20.9022V20.5099C34.9393 20.4709 34.9709 20.4393 35.0098 20.4393H35.4021C36.0113 20.4393 36.5955 20.6813 37.0263 21.1121L37.0606 21.1465C37.4512 21.537 37.4512 22.1701 37.0606 22.5607C36.6701 22.9512 36.0369 22.9512 35.6464 22.5607L35.6121 22.5263Z" fill="black"/>
<path d="M46.612 12.5263C46.1813 12.0955 45.9393 11.5113 45.9393 10.9021V10.5099C45.9393 10.4709 45.9709 10.4393 46.0098 10.4393H46.4021C47.0113 10.4393 47.5955 10.6813 48.0262 11.1121L48.0606 11.1464C48.4511 11.537 48.4511 12.1701 48.0606 12.5607C47.6701 12.9512 47.0369 12.9512 46.6464 12.5607L46.612 12.5263Z" fill="black"/>
<path d="M52.3799 4.79406C51.9491 4.3633 51.7071 3.77908 51.7071 3.1699V2.77762C51.7071 2.73867 51.7387 2.7071 51.7776 2.7071H52.1699C52.7791 2.7071 53.3633 2.94909 53.7941 3.37985L53.8284 3.4142C54.219 3.80473 54.219 4.43789 53.8284 4.82842C53.4379 5.21894 52.8047 5.21894 52.4142 4.82842L52.3799 4.79406Z" fill="black"/>
<path d="M16.3098 18.4475C16.7717 18.8447 17.0568 19.4091 17.1026 20.0165L17.132 20.4077C17.1349 20.4466 17.1058 20.4804 17.067 20.4833L16.6758 20.5128C16.0683 20.5585 15.4676 20.3611 15.0057 19.9639L14.9689 19.9322C14.5502 19.5721 14.5026 18.9407 14.8627 18.5219C15.2228 18.1032 15.8542 18.0557 16.273 18.4158L16.3098 18.4475Z" fill="black"/>
</svg>
